#define bdd03294f5124a70ec8cf1446bb6d70dJA2wMRiSfvplwhJM_width 64
#define bdd03294f5124a70ec8cf1446bb6d70dJA2wMRiSfvplwhJM_height 64
static char bdd03294f5124a70ec8cf1446bb6d70dJA2wMRiSfvplwhJM_bits[] = {
  0x00, 0x00, 0x00, 0x00, 0x00, 0x00, 0x00, 0x00, 0x00, 0x00, 0x00, 0x00, 
  0x00, 0x00, 0x00, 0x00, 0x00, 0x00, 0x00, 0x00, 0x01, 0x00, 0x00, 0x00, 
  0x00, 0x00, 0x00, 0x00, 0x01, 0x00, 0x00, 0x00, 0x00, 0x00, 0x00, 0x00, 
  0x01, 0x00, 0x00, 0x00, 0x00, 0x00, 0x00, 0x00, 0x00, 0x00, 0x00, 0x00, 
  0x00, 0x00, 0x00, 0x80, 0x01, 0x00, 0x00, 0x00, 0x00, 0x00, 0x00, 0x40, 
  0x02, 0x00, 0x00, 0x00, 0x00, 0x00, 0x00, 0x80, 0x04, 0x00, 0x00, 0x00, 
  0x00, 0x00, 0x00, 0x60, 0x0A, 0x00, 0x00, 0x00, 0x00, 0x00, 0x00, 0x60, 
  0x0D, 0x00, 0x00, 0x00, 0x00, 0x00, 0x00, 0x70, 0x0D, 0x00, 0x00, 0x00, 
  0x00, 0x00, 0x00, 0x90, 0x1C, 0x00, 0x00, 0x00, 0x00, 0x00, 0x00, 0x78, 
  0x19, 0x00, 0x00, 0x00, 0x00, 0x00, 0x00, 0xFC, 0x3E, 0x00, 0x00, 0x00, 
  0x00, 0x00, 0x00, 0x3C, 0x79, 0x00, 0x00, 0x00, 0x00, 0x00, 0x00, 0x7C, 
  0x7E, 0x00, 0x00, 0x00, 0x00, 0x00, 0x00, 0x5E, 0xF0, 0x00, 0x00, 0x00, 
  0x00, 0x00, 0x80, 0xFE, 0xDD, 0x02, 0x00, 0x00, 0x00, 0x00, 0x80, 0x1F, 
  0xFA, 0x03, 0x00, 0x00, 0x00, 0x00, 0x80, 0x9F, 0xDA, 0x03, 0x00, 0x00, 
  0x00, 0x00, 0x80, 0x7F, 0xF9, 0x01, 0x00, 0x00, 0x00, 0x00, 0x80, 0x7F, 
  0xFE, 0x03, 0x00, 0x00, 0x00, 0x00, 0x80, 0x5F, 0xF8, 0x03, 0x00, 0x00, 
  0x00, 0x00, 0xC0, 0x5F, 0xFD, 0x07, 0x00, 0x00, 0x00, 0x00, 0xE0, 0xBF, 
  0xDA, 0x07, 0x00, 0x00, 0x00, 0x00, 0xE0, 0x9F, 0xFC, 0x07, 0x00, 0x00, 
  0x00, 0x00, 0xE0, 0x7F, 0xFB, 0x0F, 0x00, 0x00, 0x00, 0x00, 0xF0, 0xBF, 
  0xF5, 0x0F, 0x00, 0x00, 0x00, 0x00, 0xF8, 0x7F, 0xFA, 0x7F, 0x00, 0x00, 
  0x00, 0x00, 0xFC, 0xBF, 0xFF, 0x7F, 0x00, 0x00, 0x00, 0x80, 0xFF, 0x7F, 
  0xFD, 0xFF, 0x01, 0x00, 0x00, 0x80, 0xF5, 0xBF, 0xFE, 0xFF, 0x04, 0x00, 
  0x00, 0xF0, 0xFF, 0xFF, 0xFD, 0x6F, 0x0F, 0x00, 0x00, 0x68, 0xED, 0x7F, 
  0xFD, 0xFF, 0x39, 0x00, 0x00, 0x6E, 0xEF, 0x7F, 0xFE, 0xDF, 0xE7, 0x00, 
  0x00, 0xE7, 0xFB, 0xFF, 0xFF, 0xE7, 0x99, 0x01, 0xE0, 0x9D, 0xC7, 0xFF, 
  0xFE, 0xCF, 0xFF, 0x07, 0x60, 0xB5, 0xE7, 0xFF, 0xFD, 0xD7, 0x42, 0x1D, 
  0xF8, 0xEF, 0xFE, 0x3F, 0xFF, 0xEF, 0xFF, 0x3B, 0xB8, 0xFF, 0xEB, 0xFF, 
  0xFE, 0xE7, 0xFF, 0x3F, 0x60, 0x00, 0xEF, 0xBE, 0xFD, 0x9F, 0x00, 0x00, 
  0x00, 0x00, 0xE6, 0xD0, 0x05, 0xE6, 0x00, 0x00, 0x00, 0x00, 0x4A, 0x00, 
  0x01, 0xA6, 0x00, 0x00, 0x00, 0x00, 0xC6, 0x00, 0x00, 0xC6, 0x00, 0x00, 
  0x00, 0x00, 0x42, 0x00, 0x00, 0x02, 0x00, 0x00, 0x00, 0x00, 0x40, 0x00, 
  0x00, 0x40, 0x00, 0x00, 0x00, 0x00, 0x04, 0x00, 0x00, 0x44, 0x00, 0x00, 
  0x00, 0x00, 0x64, 0x00, 0x00, 0x04, 0x00, 0x00, 0x00, 0x00, 0x00, 0x00, 
  0x00, 0x54, 0x00, 0x00, 0x00, 0x00, 0x3C, 0x00, 0x00, 0x6C, 0x00, 0x00, 
  0x00, 0x00, 0x3C, 0x00, 0x00, 0x38, 0x00, 0x00, 0x00, 0x00, 0x38, 0x00, 
  0x00, 0x78, 0x00, 0x00, 0x00, 0x00, 0x3C, 0x00, 0x00, 0x3C, 0x00, 0x00, 
  0x00, 0x00, 0x3C, 0x00, 0x00, 0x38, 0x00, 0x00, 0x00, 0x00, 0x38, 0x00, 
  0x00, 0x38, 0x00, 0x00, 0x00, 0x00, 0x38, 0x00, 0x00, 0x38, 0x00, 0x00, 
  0x00, 0x00, 0x38, 0x00, 0x00, 0x38, 0x00, 0x00, 0x00, 0x00, 0x18, 0x00, 
  0x00, 0x30, 0x00, 0x00, 0x00, 0x00, 0x38, 0x00, 0x00, 0x38, 0x00, 0x00, 
  0x00, 0x00, 0x10, 0x00, 0x00, 0x10, 0x00, 0x00, 0x00, 0x00, 0x10, 0x00, 
  0x00, 0x10, 0x00, 0x00, 0x00, 0x00, 0x00, 0x00, 0x00, 0x00, 0x00, 0x00, 
  0x00, 0x00, 0x00, 0x00, 0x00, 0x00, 0x00, 0x00, };
